<?xml version="1.0" encoding="utf-8" standalone="no"?>
<!DOCTYPE svg PUBLIC "-//W3C//DTD SVG 1.1//EN"
  "http://www.w3.org/Graphics/SVG/1.1/DTD/svg11.dtd">
<svg xmlns:xlink="http://www.w3.org/1999/xlink" width="1000.8pt" height="712.8pt" viewBox="0 0 1000.8 712.8" xmlns="http://www.w3.org/2000/svg" version="1.1">
 <metadata>
  <rdf:RDF xmlns:dc="http://purl.org/dc/elements/1.1/" xmlns:cc="http://creativecommons.org/ns#" xmlns:rdf="http://www.w3.org/1999/02/22-rdf-syntax-ns#">
   <cc:Work>
    <dc:type rdf:resource="http://purl.org/dc/dcmitype/StillImage"/>
    <dc:date>2026-02-06T10:13:37.028643</dc:date>
    <dc:format>image/svg+xml</dc:format>
    <dc:creator>
     <cc:Agent>
      <dc:title>Matplotlib v3.10.8, https://matplotlib.org/</dc:title>
     </cc:Agent>
    </dc:creator>
   </cc:Work>
  </rdf:RDF>
 </metadata>
 <defs>
  <style type="text/css">*{stroke-linejoin: round; stroke-linecap: butt}</style>
 </defs>
 <g id="figure_1">
  <g id="patch_1">
   <path d="M 0 712.8 
L 1000.8 712.8 
L 1000.8 0 
L 0 0 
z
" style="fill: #ffffff"/>
  </g>
  <g id="axes_1">
   <g id="patch_2">
    <path d="M 747 77.04 
L 775.182857 77.04 
L 775.182857 62.49 
L 747 62.49 
z
" clip-path="url(#p7d9cd7dfbb)" style="fill: #06a77d; stroke: #000000; stroke-width: 2; stroke-linejoin: miter"/>
   </g>
   <g id="patch_3">
    <path d="M 747 100.32 
L 775.182857 100.32 
L 775.182857 85.77 
L 747 85.77 
z
" clip-path="url(#p7d9cd7dfbb)" style="fill: #5a9bd5; stroke: #000000; stroke-width: 2; stroke-linejoin: miter"/>
   </g>
   <g id="patch_4">
    <path d="M 747 123.6 
L 775.182857 123.6 
L 775.182857 109.05 
L 747 109.05 
z
" clip-path="url(#p7d9cd7dfbb)" style="fill: #e8a84f; stroke: #000000; stroke-width: 2; stroke-linejoin: miter"/>
   </g>
   <g id="patch_5">
    <path d="M 148.114286 153.864 
L 852.685714 153.864 
Q 854.094857 153.864 854.094857 152.7 
L 854.094857 117.78 
Q 854.094857 116.616 852.685714 116.616 
L 148.114286 116.616 
Q 146.705143 116.616 146.705143 117.78 
L 146.705143 152.7 
Q 146.705143 153.864 148.114286 153.864 
z
" clip-path="url(#p7d9cd7dfbb)" style="fill: #06a77d; stroke: #000000; stroke-width: 2.5; stroke-linejoin: miter"/>
   </g>
   <g id="patch_6">
    <path d="M 236.11083 270.264 
L 764.68917 270.264 
Q 766.098313 270.264 766.098313 269.1 
L 766.098313 234.18 
Q 766.098313 233.016 764.68917 233.016 
L 236.11083 233.016 
Q 234.701687 233.016 234.701687 234.18 
L 234.701687 269.1 
Q 234.701687 270.264 236.11083 270.264 
z
" clip-path="url(#p7d9cd7dfbb)" style="fill: #5a9bd5; stroke: #000000; stroke-width: 2.5; stroke-linejoin: miter"/>
   </g>
   <g id="patch_7">
    <path d="M 323.605676 386.664 
L 677.194324 386.664 
Q 678.603467 386.664 678.603467 385.5 
L 678.603467 350.58 
Q 678.603467 349.416 677.194324 349.416 
L 323.605676 349.416 
Q 322.196533 349.416 322.196533 350.58 
L 322.196533 385.5 
Q 322.196533 386.664 323.605676 386.664 
z
" clip-path="url(#p7d9cd7dfbb)" style="fill: #e8a84f; stroke: #000000; stroke-width: 2.5; stroke-linejoin: miter"/>
   </g>
   <g id="text_1">
    <!-- Autoencoder Architecture: 64D - Gradually Decrease Dimensions -->
    <g style="fill: #262626" transform="translate(191.253125 36.3) scale(0.2 -0.2)">
     <defs>
      <path id="LiberationSans-Bold-41" d="M 3541 0 
L 3150 1125 
L 1472 1125 
L 1081 0 
L 159 0 
L 1766 4403 
L 2853 4403 
L 4453 0 
L 3541 0 
z
M 2309 3725 
L 2291 3656 
Q 2259 3544 2215 3400 
Q 2172 3256 1678 1819 
L 2944 1819 
L 2509 3084 
L 2375 3509 
L 2309 3725 
z
" transform="scale(0.015625)"/>
      <path id="LiberationSans-Bold-75" d="M 1275 3381 
L 1275 1484 
Q 1275 594 1875 594 
Q 2194 594 2389 867 
Q 2584 1141 2584 1569 
L 2584 3381 
L 3463 3381 
L 3463 756 
Q 3463 325 3488 0 
L 2650 0 
Q 2613 450 2613 672 
L 2597 672 
Q 2422 288 2151 112 
Q 1881 -63 1509 -63 
Q 972 -63 684 267 
Q 397 597 397 1234 
L 397 3381 
L 1275 3381 
z
" transform="scale(0.015625)"/>
      <path id="LiberationSans-Bold-74" d="M 1313 -56 
Q 925 -56 715 155 
Q 506 366 506 794 
L 506 2788 
L 78 2788 
L 78 3381 
L 550 3381 
L 825 4175 
L 1375 4175 
L 1375 3381 
L 2016 3381 
L 2016 2788 
L 1375 2788 
L 1375 1031 
Q 1375 784 1469 667 
Q 1563 550 1759 550 
Q 1863 550 2053 594 
L 2053 50 
Q 1728 -56 1313 -56 
z
" transform="scale(0.015625)"/>
      <path id="LiberationSans-Bold-6f" d="M 3659 1694 
Q 3659 872 3203 404 
Q 2747 -63 1941 -63 
Q 1150 -63 700 406 
Q 250 875 250 1694 
Q 250 2509 700 2976 
Q 1150 3444 1959 3444 
Q 2788 3444 3223 2992 
Q 3659 2541 3659 1694 
z
M 2741 1694 
Q 2741 2297 2544 2569 
Q 2347 2841 1972 2841 
Q 1172 2841 1172 1694 
Q 1172 1128 1367 833 
Q 1563 538 1931 538 
Q 2741 538 2741 1694 
z
" transform="scale(0.015625)"/>
      <path id="LiberationSans-Bold-65" d="M 1831 -63 
Q 1069 -63 659 389 
Q 250 841 250 1706 
Q 250 2544 665 2994 
Q 1081 3444 1844 3444 
Q 2572 3444 2956 2961 
Q 3341 2478 3341 1547 
L 3341 1522 
L 1172 1522 
Q 1172 1028 1355 776 
Q 1538 525 1875 525 
Q 2341 525 2463 928 
L 3291 856 
Q 2931 -63 1831 -63 
z
M 1831 2891 
Q 1522 2891 1355 2675 
Q 1188 2459 1178 2072 
L 2491 2072 
Q 2466 2481 2294 2686 
Q 2122 2891 1831 2891 
z
" transform="scale(0.015625)"/>
      <path id="LiberationSans-Bold-6e" d="M 2638 0 
L 2638 1897 
Q 2638 2788 2034 2788 
Q 1716 2788 1520 2514 
Q 1325 2241 1325 1813 
L 1325 0 
L 447 0 
L 447 2625 
Q 447 2897 439 3070 
Q 431 3244 422 3381 
L 1259 3381 
Q 1269 3322 1284 3064 
Q 1300 2806 1300 2709 
L 1313 2709 
Q 1491 3097 1759 3272 
Q 2028 3447 2400 3447 
Q 2938 3447 3225 3115 
Q 3513 2784 3513 2147 
L 3513 0 
L 2638 0 
z
" transform="scale(0.015625)"/>
      <path id="LiberationSans-Bold-63" d="M 1856 -63 
Q 1088 -63 669 395 
Q 250 853 250 1672 
Q 250 2509 672 2976 
Q 1094 3444 1869 3444 
Q 2466 3444 2856 3144 
Q 3247 2844 3347 2316 
L 2463 2272 
Q 2425 2531 2275 2686 
Q 2125 2841 1850 2841 
Q 1172 2841 1172 1706 
Q 1172 538 1863 538 
Q 2113 538 2281 695 
Q 2450 853 2491 1166 
L 3372 1125 
Q 3325 778 3123 506 
Q 2922 234 2594 85 
Q 2266 -63 1856 -63 
z
" transform="scale(0.015625)"/>
      <path id="LiberationSans-Bold-64" d="M 2638 0 
Q 2625 47 2608 236 
Q 2591 425 2591 550 
L 2578 550 
Q 2294 -63 1497 -63 
Q 906 -63 584 398 
Q 263 859 263 1688 
Q 263 2528 602 2986 
Q 941 3444 1563 3444 
Q 1922 3444 2183 3294 
Q 2444 3144 2584 2847 
L 2591 2847 
L 2584 3403 
L 2584 4638 
L 3463 4638 
L 3463 738 
Q 3463 425 3488 0 
L 2638 0 
z
M 2597 1709 
Q 2597 2256 2414 2551 
Q 2231 2847 1875 2847 
Q 1522 2847 1350 2561 
Q 1178 2275 1178 1688 
Q 1178 538 1869 538 
Q 2216 538 2406 842 
Q 2597 1147 2597 1709 
z
" transform="scale(0.015625)"/>
      <path id="LiberationSans-Bold-72" d="M 447 0 
L 447 2588 
Q 447 2866 439 3052 
Q 431 3238 422 3381 
L 1259 3381 
Q 1269 3325 1284 3039 
Q 1300 2753 1300 2659 
L 1313 2659 
Q 1441 3016 1541 3161 
Q 1641 3306 1778 3376 
Q 1916 3447 2122 3447 
Q 2291 3447 2394 3400 
L 2394 2666 
Q 2181 2713 2019 2713 
Q 1691 2713 1508 2447 
Q 1325 2181 1325 1659 
L 1325 0 
L 447 0 
z
" transform="scale(0.015625)"/>
      <path id="LiberationSans-Bold-20" transform="scale(0.015625)"/>
      <path id="LiberationSans-Bold-68" d="M 1313 2706 
Q 1491 3094 1759 3269 
Q 2028 3444 2400 3444 
Q 2938 3444 3225 3112 
Q 3513 2781 3513 2144 
L 3513 0 
L 2638 0 
L 2638 1894 
Q 2638 2784 2034 2784 
Q 1716 2784 1520 2511 
Q 1325 2238 1325 1809 
L 1325 0 
L 447 0 
L 447 4638 
L 1325 4638 
L 1325 3372 
Q 1325 3031 1300 2706 
L 1313 2706 
z
" transform="scale(0.015625)"/>
      <path id="LiberationSans-Bold-69" d="M 447 3991 
L 447 4638 
L 1325 4638 
L 1325 3991 
L 447 3991 
z
M 447 0 
L 447 3381 
L 1325 3381 
L 1325 0 
L 447 0 
z
" transform="scale(0.015625)"/>
      <path id="LiberationSans-Bold-3a" d="M 616 2350 
L 616 3231 
L 1516 3231 
L 1516 2350 
L 616 2350 
z
M 616 0 
L 616 878 
L 1516 878 
L 1516 0 
L 616 0 
z
" transform="scale(0.015625)"/>
      <path id="LiberationSans-Bold-36" d="M 3328 1441 
Q 3328 738 2934 337 
Q 2541 -63 1847 -63 
Q 1069 -63 651 482 
Q 234 1028 234 2100 
Q 234 3278 657 3873 
Q 1081 4469 1869 4469 
Q 2428 4469 2751 4222 
Q 3075 3975 3209 3456 
L 2381 3341 
Q 2263 3775 1850 3775 
Q 1497 3775 1295 3422 
Q 1094 3069 1094 2350 
Q 1234 2584 1484 2709 
Q 1734 2834 2050 2834 
Q 2641 2834 2984 2459 
Q 3328 2084 3328 1441 
z
M 2447 1416 
Q 2447 1791 2273 1989 
Q 2100 2188 1797 2188 
Q 1506 2188 1331 2002 
Q 1156 1816 1156 1509 
Q 1156 1125 1339 873 
Q 1522 622 1819 622 
Q 2116 622 2281 833 
Q 2447 1044 2447 1416 
z
" transform="scale(0.015625)"/>
      <path id="LiberationSans-Bold-34" d="M 2938 897 
L 2938 0 
L 2100 0 
L 2100 897 
L 97 897 
L 97 1556 
L 1956 4403 
L 2938 4403 
L 2938 1550 
L 3525 1550 
L 3525 897 
L 2938 897 
z
M 2100 2991 
Q 2100 3159 2111 3356 
Q 2122 3553 2128 3609 
Q 2047 3434 1834 3103 
L 813 1550 
L 2100 1550 
L 2100 2991 
z
" transform="scale(0.015625)"/>
      <path id="LiberationSans-Bold-44" d="M 4353 2234 
Q 4353 1553 4086 1045 
Q 3819 538 3330 269 
Q 2841 0 2209 0 
L 428 0 
L 428 4403 
L 2022 4403 
Q 3134 4403 3743 3842 
Q 4353 3281 4353 2234 
z
M 3425 2234 
Q 3425 2944 3056 3317 
Q 2688 3691 2003 3691 
L 1350 3691 
L 1350 713 
L 2131 713 
Q 2725 713 3075 1122 
Q 3425 1531 3425 2234 
z
" transform="scale(0.015625)"/>
      <path id="LiberationSans-Bold-2d" d="M 250 1278 
L 250 2041 
L 1875 2041 
L 1875 1278 
L 250 1278 
z
" transform="scale(0.015625)"/>
      <path id="LiberationSans-Bold-47" d="M 2519 659 
Q 2878 659 3215 764 
Q 3553 869 3738 1031 
L 3738 1641 
L 2663 1641 
L 2663 2322 
L 4581 2322 
L 4581 703 
Q 4231 344 3670 140 
Q 3109 -63 2494 -63 
Q 1419 -63 841 532 
Q 263 1128 263 2222 
Q 263 3309 844 3889 
Q 1425 4469 2516 4469 
Q 4066 4469 4488 3322 
L 3638 3066 
Q 3500 3400 3206 3572 
Q 2913 3744 2516 3744 
Q 1866 3744 1528 3350 
Q 1191 2956 1191 2222 
Q 1191 1475 1539 1067 
Q 1888 659 2519 659 
z
" transform="scale(0.015625)"/>
      <path id="LiberationSans-Bold-61" d="M 1228 -63 
Q 738 -63 463 204 
Q 188 472 188 956 
Q 188 1481 530 1756 
Q 872 2031 1522 2038 
L 2250 2050 
L 2250 2222 
Q 2250 2553 2134 2714 
Q 2019 2875 1756 2875 
Q 1513 2875 1398 2764 
Q 1284 2653 1256 2397 
L 341 2441 
Q 425 2934 792 3189 
Q 1159 3444 1794 3444 
Q 2434 3444 2781 3128 
Q 3128 2813 3128 2231 
L 3128 1000 
Q 3128 716 3192 608 
Q 3256 500 3406 500 
Q 3506 500 3600 519 
L 3600 44 
Q 3522 25 3459 9 
Q 3397 -6 3334 -15 
Q 3272 -25 3201 -31 
Q 3131 -38 3038 -38 
Q 2706 -38 2548 125 
Q 2391 288 2359 603 
L 2341 603 
Q 1972 -63 1228 -63 
z
M 2250 1566 
L 1800 1559 
Q 1494 1547 1366 1492 
Q 1238 1438 1170 1325 
Q 1103 1213 1103 1025 
Q 1103 784 1214 667 
Q 1325 550 1509 550 
Q 1716 550 1886 662 
Q 2056 775 2153 973 
Q 2250 1172 2250 1394 
L 2250 1566 
z
" transform="scale(0.015625)"/>
      <path id="LiberationSans-Bold-6c" d="M 447 0 
L 447 4638 
L 1325 4638 
L 1325 0 
L 447 0 
z
" transform="scale(0.015625)"/>
      <path id="LiberationSans-Bold-79" d="M 884 -1328 
Q 569 -1328 331 -1288 
L 331 -663 
Q 497 -688 634 -688 
Q 822 -688 945 -628 
Q 1069 -569 1167 -431 
Q 1266 -294 1388 34 
L 50 3381 
L 978 3381 
L 1509 1797 
Q 1634 1456 1825 753 
L 1903 1050 
L 2106 1784 
L 2606 3381 
L 3525 3381 
L 2188 -178 
Q 1919 -828 1630 -1078 
Q 1341 -1328 884 -1328 
z
" transform="scale(0.015625)"/>
      <path id="LiberationSans-Bold-73" d="M 3297 988 
Q 3297 497 2895 217 
Q 2494 -63 1784 -63 
Q 1088 -63 717 157 
Q 347 378 225 844 
L 997 959 
Q 1063 719 1223 619 
Q 1384 519 1784 519 
Q 2153 519 2322 612 
Q 2491 706 2491 906 
Q 2491 1069 2355 1164 
Q 2219 1259 1894 1325 
Q 1150 1472 890 1598 
Q 631 1725 495 1926 
Q 359 2128 359 2422 
Q 359 2906 732 3176 
Q 1106 3447 1791 3447 
Q 2394 3447 2761 3212 
Q 3128 2978 3219 2534 
L 2441 2453 
Q 2403 2659 2256 2761 
Q 2109 2863 1791 2863 
Q 1478 2863 1322 2783 
Q 1166 2703 1166 2516 
Q 1166 2369 1286 2283 
Q 1406 2197 1691 2141 
Q 2088 2059 2395 1973 
Q 2703 1888 2889 1769 
Q 3075 1650 3186 1464 
Q 3297 1278 3297 988 
z
" transform="scale(0.015625)"/>
      <path id="LiberationSans-Bold-6d" d="M 2438 0 
L 2438 1897 
Q 2438 2788 1925 2788 
Q 1659 2788 1492 2516 
Q 1325 2244 1325 1813 
L 1325 0 
L 447 0 
L 447 2625 
Q 447 2897 439 3070 
Q 431 3244 422 3381 
L 1259 3381 
Q 1269 3322 1284 3064 
Q 1300 2806 1300 2709 
L 1313 2709 
Q 1475 3097 1717 3272 
Q 1959 3447 2297 3447 
Q 3072 3447 3238 2709 
L 3256 2709 
Q 3428 3103 3668 3275 
Q 3909 3447 4281 3447 
Q 4775 3447 5034 3111 
Q 5294 2775 5294 2147 
L 5294 0 
L 4422 0 
L 4422 1897 
Q 4422 2788 3909 2788 
Q 3653 2788 3489 2539 
Q 3325 2291 3309 1853 
L 3309 0 
L 2438 0 
z
" transform="scale(0.015625)"/>
     </defs>
     <use xlink:href="#LiberationSans-Bold-41"/>
     <use xlink:href="#LiberationSans-Bold-75" transform="translate(72.216797 0)"/>
     <use xlink:href="#LiberationSans-Bold-74" transform="translate(133.300781 0)"/>
     <use xlink:href="#LiberationSans-Bold-6f" transform="translate(166.601562 0)"/>
     <use xlink:href="#LiberationSans-Bold-65" transform="translate(227.685547 0)"/>
     <use xlink:href="#LiberationSans-Bold-6e" transform="translate(283.300781 0)"/>
     <use xlink:href="#LiberationSans-Bold-63" transform="translate(344.384766 0)"/>
     <use xlink:href="#LiberationSans-Bold-6f" transform="translate(400 0)"/>
     <use xlink:href="#LiberationSans-Bold-64" transform="translate(461.083984 0)"/>
     <use xlink:href="#LiberationSans-Bold-65" transform="translate(522.167969 0)"/>
     <use xlink:href="#LiberationSans-Bold-72" transform="translate(577.783203 0)"/>
     <use xlink:href="#LiberationSans-Bold-20" transform="translate(616.699219 0)"/>
     <use xlink:href="#LiberationSans-Bold-41" transform="translate(640.732422 0)"/>
     <use xlink:href="#LiberationSans-Bold-72" transform="translate(712.949219 0)"/>
     <use xlink:href="#LiberationSans-Bold-63" transform="translate(751.865234 0)"/>
     <use xlink:href="#LiberationSans-Bold-68" transform="translate(807.480469 0)"/>
     <use xlink:href="#LiberationSans-Bold-69" transform="translate(868.564453 0)"/>
     <use xlink:href="#LiberationSans-Bold-74" transform="translate(896.347656 0)"/>
     <use xlink:href="#LiberationSans-Bold-65" transform="translate(929.648438 0)"/>
     <use xlink:href="#LiberationSans-Bold-63" transform="translate(985.263672 0)"/>
     <use xlink:href="#LiberationSans-Bold-74" transform="translate(1040.878906 0)"/>
     <use xlink:href="#LiberationSans-Bold-75" transform="translate(1074.179688 0)"/>
     <use xlink:href="#LiberationSans-Bold-72" transform="translate(1135.263672 0)"/>
     <use xlink:href="#LiberationSans-Bold-65" transform="translate(1174.179688 0)"/>
     <use xlink:href="#LiberationSans-Bold-3a" transform="translate(1229.794922 0)"/>
     <use xlink:href="#LiberationSans-Bold-20" transform="translate(1263.095703 0)"/>
     <use xlink:href="#LiberationSans-Bold-36" transform="translate(1290.878906 0)"/>
     <use xlink:href="#LiberationSans-Bold-34" transform="translate(1346.494141 0)"/>
     <use xlink:href="#LiberationSans-Bold-44" transform="translate(1402.109375 0)"/>
     <use xlink:href="#LiberationSans-Bold-20" transform="translate(1474.326172 0)"/>
     <use xlink:href="#LiberationSans-Bold-2d" transform="translate(1502.109375 0)"/>
     <use xlink:href="#LiberationSans-Bold-20" transform="translate(1535.410156 0)"/>
     <use xlink:href="#LiberationSans-Bold-47" transform="translate(1563.193359 0)"/>
     <use xlink:href="#LiberationSans-Bold-72" transform="translate(1640.976562 0)"/>
     <use xlink:href="#LiberationSans-Bold-61" transform="translate(1679.892578 0)"/>
     <use xlink:href="#LiberationSans-Bold-64" transform="translate(1735.507812 0)"/>
     <use xlink:href="#LiberationSans-Bold-75" transform="translate(1796.591797 0)"/>
     <use xlink:href="#LiberationSans-Bold-61" transform="translate(1857.675781 0)"/>
     <use xlink:href="#LiberationSans-Bold-6c" transform="translate(1913.291016 0)"/>
     <use xlink:href="#LiberationSans-Bold-6c" transform="translate(1941.074219 0)"/>
     <use xlink:href="#LiberationSans-Bold-79" transform="translate(1968.857422 0)"/>
     <use xlink:href="#LiberationSans-Bold-20" transform="translate(2024.472656 0)"/>
     <use xlink:href="#LiberationSans-Bold-44" transform="translate(2052.255859 0)"/>
     <use xlink:href="#LiberationSans-Bold-65" transform="translate(2124.472656 0)"/>
     <use xlink:href="#LiberationSans-Bold-63" transform="translate(2180.087891 0)"/>
     <use xlink:href="#LiberationSans-Bold-72" transform="translate(2235.703125 0)"/>
     <use xlink:href="#LiberationSans-Bold-65" transform="translate(2274.619141 0)"/>
     <use xlink:href="#LiberationSans-Bold-61" transform="translate(2330.234375 0)"/>
     <use xlink:href="#LiberationSans-Bold-73" transform="translate(2385.849609 0)"/>
     <use xlink:href="#LiberationSans-Bold-65" transform="translate(2441.464844 0)"/>
     <use xlink:href="#LiberationSans-Bold-20" transform="translate(2497.080078 0)"/>
     <use xlink:href="#LiberationSans-Bold-44" transform="translate(2524.863281 0)"/>
     <use xlink:href="#LiberationSans-Bold-69" transform="translate(2597.080078 0)"/>
     <use xlink:href="#LiberationSans-Bold-6d" transform="translate(2624.863281 0)"/>
     <use xlink:href="#LiberationSans-Bold-65" transform="translate(2713.779297 0)"/>
     <use xlink:href="#LiberationSans-Bold-6e" transform="translate(2769.394531 0)"/>
     <use xlink:href="#LiberationSans-Bold-73" transform="translate(2830.478516 0)"/>
     <use xlink:href="#LiberationSans-Bold-69" transform="translate(2886.09375 0)"/>
     <use xlink:href="#LiberationSans-Bold-6f" transform="translate(2913.876953 0)"/>
     <use xlink:href="#LiberationSans-Bold-6e" transform="translate(2974.960938 0)"/>
     <use xlink:href="#LiberationSans-Bold-73" transform="translate(3036.044922 0)"/>
    </g>
   </g>
   <g id="text_2">
    <!-- Input Layer -->
    <g style="fill: #262626" transform="translate(789.274286 72.609531) scale(0.11 -0.11)">
     <defs>
      <path id="LiberationSans-49" d="M 591 0 
L 591 4403 
L 1188 4403 
L 1188 0 
L 591 0 
z
" transform="scale(0.015625)"/>
      <path id="LiberationSans-6e" d="M 2578 0 
L 2578 2144 
Q 2578 2391 2542 2556 
Q 2506 2722 2425 2823 
Q 2344 2925 2211 2967 
Q 2078 3009 1881 3009 
Q 1681 3009 1520 2939 
Q 1359 2869 1245 2736 
Q 1131 2603 1068 2408 
Q 1006 2213 1006 1959 
L 1006 0 
L 444 0 
L 444 2659 
Q 444 2766 442 2883 
Q 441 3000 437 3104 
Q 434 3209 431 3284 
Q 428 3359 425 3381 
L 956 3381 
Q 959 3366 962 3297 
Q 966 3228 970 3139 
Q 975 3050 978 2958 
Q 981 2866 981 2803 
L 991 2803 
Q 1072 2950 1169 3069 
Q 1266 3188 1394 3270 
Q 1522 3353 1687 3398 
Q 1853 3444 2072 3444 
Q 2353 3444 2556 3375 
Q 2759 3306 2890 3162 
Q 3022 3019 3083 2792 
Q 3144 2566 3144 2253 
L 3144 0 
L 2578 0 
z
" transform="scale(0.015625)"/>
      <path id="LiberationSans-70" d="M 3291 1706 
Q 3291 1322 3228 997 
Q 3166 672 3020 437 
Q 2875 203 2636 70 
Q 2397 -63 2047 -63 
Q 1684 -63 1412 75 
Q 1141 213 997 525 
L 981 525 
Q 984 519 986 469 
Q 988 419 989 344 
Q 991 269 992 176 
Q 994 84 994 -6 
L 994 -1328 
L 431 -1328 
L 431 2691 
Q 431 2813 429 2925 
Q 428 3038 425 3130 
Q 422 3222 419 3287 
Q 416 3353 413 3381 
L 956 3381 
Q 959 3372 964 3315 
Q 969 3259 973 3179 
Q 978 3100 983 3009 
Q 988 2919 988 2838 
L 1000 2838 
Q 1078 3000 1178 3114 
Q 1278 3228 1406 3301 
Q 1534 3375 1692 3408 
Q 1850 3441 2047 3441 
Q 2397 3441 2636 3316 
Q 2875 3191 3020 2964 
Q 3166 2738 3228 2417 
Q 3291 2097 3291 1706 
z
M 2700 1694 
Q 2700 2006 2662 2250 
Q 2625 2494 2533 2662 
Q 2441 2831 2287 2918 
Q 2134 3006 1903 3006 
Q 1716 3006 1550 2953 
Q 1384 2900 1261 2750 
Q 1138 2600 1066 2336 
Q 994 2072 994 1650 
Q 994 1291 1053 1042 
Q 1113 794 1227 641 
Q 1341 488 1509 420 
Q 1678 353 1897 353 
Q 2131 353 2286 443 
Q 2441 534 2533 706 
Q 2625 878 2662 1126 
Q 2700 1375 2700 1694 
z
" transform="scale(0.015625)"/>
      <path id="LiberationSans-75" d="M 981 3381 
L 981 1238 
Q 981 991 1017 825 
Q 1053 659 1134 557 
Q 1216 456 1348 414 
Q 1481 372 1678 372 
Q 1878 372 2039 442 
Q 2200 513 2314 645 
Q 2428 778 2490 973 
Q 2553 1169 2553 1422 
L 2553 3381 
L 3116 3381 
L 3116 722 
Q 3116 616 3117 498 
Q 3119 381 3122 276 
Q 3125 172 3128 97 
Q 3131 22 3134 0 
L 2603 0 
Q 2600 16 2597 84 
Q 2594 153 2589 242 
Q 2584 331 2581 423 
Q 2578 516 2578 578 
L 2569 578 
Q 2488 431 2391 312 
Q 2294 194 2166 111 
Q 2038 28 1872 -17 
Q 1706 -63 1488 -63 
Q 1206 -63 1003 6 
Q 800 75 669 219 
Q 538 363 477 588 
Q 416 813 416 1128 
L 416 3381 
L 981 3381 
z
" transform="scale(0.015625)"/>
      <path id="LiberationSans-74" d="M 1731 25 
Q 1603 -9 1470 -29 
Q 1338 -50 1163 -50 
Q 488 -50 488 716 
L 488 2972 
L 97 2972 
L 97 3381 
L 509 3381 
L 675 4138 
L 1050 4138 
L 1050 3381 
L 1675 3381 
L 1675 2972 
L 1050 2972 
L 1050 838 
Q 1050 594 1129 495 
Q 1209 397 1406 397 
Q 1488 397 1564 409 
Q 1641 422 1731 441 
L 1731 25 
z
" transform="scale(0.015625)"/>
      <path id="LiberationSans-20" transform="scale(0.015625)"/>
      <path id="LiberationSans-4c" d="M 525 0 
L 525 4403 
L 1122 4403 
L 1122 488 
L 3347 488 
L 3347 0 
L 525 0 
z
" transform="scale(0.015625)"/>
      <path id="LiberationSans-61" d="M 1294 -63 
Q 784 -63 528 206 
Q 272 475 272 944 
Q 272 1278 398 1492 
Q 525 1706 729 1828 
Q 934 1950 1196 1997 
Q 1459 2044 1731 2050 
L 2491 2063 
L 2491 2247 
Q 2491 2456 2447 2603 
Q 2403 2750 2312 2840 
Q 2222 2931 2086 2973 
Q 1950 3016 1766 3016 
Q 1603 3016 1472 2992 
Q 1341 2969 1244 2908 
Q 1147 2847 1087 2742 
Q 1028 2638 1009 2478 
L 422 2531 
Q 453 2731 540 2898 
Q 628 3066 789 3187 
Q 950 3309 1192 3376 
Q 1434 3444 1778 3444 
Q 2416 3444 2737 3151 
Q 3059 2859 3059 2306 
L 3059 850 
Q 3059 600 3125 473 
Q 3191 347 3375 347 
Q 3422 347 3469 353 
Q 3516 359 3559 369 
L 3559 19 
Q 3453 -6 3348 -18 
Q 3244 -31 3125 -31 
Q 2966 -31 2852 11 
Q 2738 53 2666 139 
Q 2594 225 2556 351 
Q 2519 478 2509 647 
L 2491 647 
Q 2400 484 2292 353 
Q 2184 222 2040 130 
Q 1897 38 1714 -12 
Q 1531 -63 1294 -63 
z
M 1422 359 
Q 1691 359 1892 457 
Q 2094 556 2226 709 
Q 2359 863 2425 1044 
Q 2491 1225 2491 1391 
L 2491 1669 
L 1875 1656 
Q 1669 1653 1483 1626 
Q 1297 1600 1156 1522 
Q 1016 1444 933 1303 
Q 850 1163 850 934 
Q 850 659 998 509 
Q 1147 359 1422 359 
z
" transform="scale(0.015625)"/>
      <path id="LiberationSans-79" d="M 1888 0 
Q 1769 -306 1645 -551 
Q 1522 -797 1369 -970 
Q 1216 -1144 1028 -1236 
Q 841 -1328 597 -1328 
Q 491 -1328 400 -1322 
Q 309 -1316 209 -1294 
L 209 -872 
Q 269 -881 344 -886 
Q 419 -891 472 -891 
Q 719 -891 931 -706 
Q 1144 -522 1303 -119 
L 1356 16 
L 16 3381 
L 616 3381 
L 1328 1513 
Q 1359 1428 1407 1287 
Q 1456 1147 1504 1006 
Q 1553 866 1590 753 
Q 1628 641 1634 613 
Q 1644 647 1680 748 
Q 1716 850 1761 975 
Q 1806 1100 1853 1228 
Q 1900 1356 1931 1450 
L 2594 3381 
L 3188 3381 
L 1888 0 
z
" transform="scale(0.015625)"/>
      <path id="LiberationSans-65" d="M 863 1572 
Q 863 1306 917 1082 
Q 972 859 1086 698 
Q 1200 538 1378 448 
Q 1556 359 1806 359 
Q 2172 359 2392 506 
Q 2613 653 2691 878 
L 3184 738 
Q 3131 597 3036 455 
Q 2941 313 2781 198 
Q 2622 84 2383 10 
Q 2144 -63 1806 -63 
Q 1056 -63 664 384 
Q 272 831 272 1713 
Q 272 2188 390 2517 
Q 509 2847 715 3053 
Q 922 3259 1197 3351 
Q 1472 3444 1784 3444 
Q 2209 3444 2495 3306 
Q 2781 3169 2954 2926 
Q 3128 2684 3201 2356 
Q 3275 2028 3275 1647 
L 3275 1572 
L 863 1572 
z
M 2694 2003 
Q 2647 2538 2422 2783 
Q 2197 3028 1775 3028 
Q 1634 3028 1479 2983 
Q 1325 2938 1194 2822 
Q 1063 2706 972 2507 
Q 881 2309 869 2003 
L 2694 2003 
z
" transform="scale(0.015625)"/>
      <path id="LiberationSans-72" d="M 444 0 
L 444 2594 
Q 444 2700 442 2811 
Q 441 2922 437 3025 
Q 434 3128 431 3218 
Q 428 3309 425 3381 
L 956 3381 
Q 959 3309 964 3217 
Q 969 3125 973 3028 
Q 978 2931 979 2842 
Q 981 2753 981 2691 
L 994 2691 
Q 1053 2884 1120 3026 
Q 1188 3169 1278 3261 
Q 1369 3353 1494 3398 
Q 1619 3444 1797 3444 
Q 1866 3444 1928 3433 
Q 1991 3422 2025 3413 
L 2025 2897 
Q 1969 2913 1894 2920 
Q 1819 2928 1725 2928 
Q 1531 2928 1395 2840 
Q 1259 2753 1173 2598 
Q 1088 2444 1047 2230 
Q 1006 2016 1006 1763 
L 1006 0 
L 444 0 
z
" transform="scale(0.015625)"/>
     </defs>
     <use xlink:href="#LiberationSans-49"/>
     <use xlink:href="#LiberationSans-6e" transform="translate(27.783203 0)"/>
     <use xlink:href="#LiberationSans-70" transform="translate(83.398438 0)"/>
     <use xlink:href="#LiberationSans-75" transform="translate(139.013672 0)"/>
     <use xlink:href="#LiberationSans-74" transform="translate(194.628906 0)"/>
     <use xlink:href="#LiberationSans-20" transform="translate(222.412109 0)"/>
     <use xlink:href="#LiberationSans-4c" transform="translate(250.195312 0)"/>
     <use xlink:href="#LiberationSans-61" transform="translate(305.810547 0)"/>
     <use xlink:href="#LiberationSans-79" transform="translate(361.425781 0)"/>
     <use xlink:href="#LiberationSans-65" transform="translate(411.425781 0)"/>
     <use xlink:href="#LiberationSans-72" transform="translate(467.041016 0)"/>
    </g>
   </g>
   <g id="text_3">
    <!-- Hidden Layers -->
    <g style="fill: #262626" transform="translate(789.274286 95.889531) scale(0.11 -0.11)">
     <defs>
      <path id="LiberationSans-48" d="M 3503 0 
L 3503 2041 
L 1122 2041 
L 1122 0 
L 525 0 
L 525 4403 
L 1122 4403 
L 1122 2541 
L 3503 2541 
L 3503 4403 
L 4100 4403 
L 4100 0 
L 3503 0 
z
" transform="scale(0.015625)"/>
      <path id="LiberationSans-69" d="M 428 4100 
L 428 4638 
L 991 4638 
L 991 4100 
L 428 4100 
z
M 428 0 
L 428 3381 
L 991 3381 
L 991 0 
L 428 0 
z
" transform="scale(0.015625)"/>
      <path id="LiberationSans-64" d="M 2566 544 
Q 2409 219 2151 78 
Q 1894 -63 1513 -63 
Q 872 -63 570 368 
Q 269 800 269 1675 
Q 269 3444 1513 3444 
Q 1897 3444 2153 3303 
Q 2409 3163 2566 2856 
L 2572 2856 
Q 2572 2888 2570 2955 
Q 2569 3022 2567 3095 
Q 2566 3169 2566 3234 
Q 2566 3300 2566 3328 
L 2566 4638 
L 3128 4638 
L 3128 697 
Q 3128 575 3129 462 
Q 3131 350 3134 256 
Q 3138 163 3141 95 
Q 3144 28 3147 0 
L 2609 0 
Q 2603 31 2598 89 
Q 2594 147 2589 222 
Q 2584 297 2581 380 
Q 2578 463 2578 544 
L 2566 544 
z
M 859 1694 
Q 859 1344 903 1094 
Q 947 844 1044 683 
Q 1141 522 1291 447 
Q 1441 372 1656 372 
Q 1878 372 2048 444 
Q 2219 516 2333 677 
Q 2447 838 2506 1097 
Q 2566 1356 2566 1731 
Q 2566 2091 2506 2339 
Q 2447 2588 2331 2741 
Q 2216 2894 2048 2961 
Q 1881 3028 1663 3028 
Q 1456 3028 1306 2956 
Q 1156 2884 1056 2725 
Q 956 2566 907 2311 
Q 859 2056 859 1694 
z
" transform="scale(0.015625)"/>
      <path id="LiberationSans-73" d="M 2969 934 
Q 2969 697 2876 511 
Q 2784 325 2609 198 
Q 2434 72 2179 4 
Q 1925 -63 1597 -63 
Q 1303 -63 1067 -17 
Q 831 28 653 128 
Q 475 228 354 392 
Q 234 556 178 794 
L 675 891 
Q 747 619 972 492 
Q 1197 366 1597 366 
Q 1778 366 1929 391 
Q 2081 416 2190 477 
Q 2300 538 2361 639 
Q 2422 741 2422 891 
Q 2422 1044 2350 1142 
Q 2278 1241 2150 1306 
Q 2022 1372 1839 1420 
Q 1656 1469 1438 1528 
Q 1234 1581 1034 1647 
Q 834 1713 673 1820 
Q 513 1928 413 2087 
Q 313 2247 313 2488 
Q 313 2950 642 3192 
Q 972 3434 1603 3434 
Q 2163 3434 2492 3237 
Q 2822 3041 2909 2606 
L 2403 2544 
Q 2375 2675 2300 2764 
Q 2225 2853 2119 2908 
Q 2013 2963 1880 2986 
Q 1747 3009 1603 3009 
Q 1222 3009 1040 2893 
Q 859 2778 859 2544 
Q 859 2406 926 2317 
Q 994 2228 1114 2167 
Q 1234 2106 1403 2061 
Q 1572 2016 1775 1966 
Q 1909 1931 2050 1892 
Q 2191 1853 2323 1798 
Q 2456 1744 2573 1670 
Q 2691 1597 2778 1494 
Q 2866 1391 2917 1253 
Q 2969 1116 2969 934 
z
" transform="scale(0.015625)"/>
     </defs>
     <use xlink:href="#LiberationSans-48"/>
     <use xlink:href="#LiberationSans-69" transform="translate(72.216797 0)"/>
     <use xlink:href="#LiberationSans-64" transform="translate(94.433594 0)"/>
     <use xlink:href="#LiberationSans-64" transform="translate(150.048828 0)"/>
     <use xlink:href="#LiberationSans-65" transform="translate(205.664062 0)"/>
     <use xlink:href="#LiberationSans-6e" transform="translate(261.279297 0)"/>
     <use xlink:href="#LiberationSans-20" transform="translate(316.894531 0)"/>
     <use xlink:href="#LiberationSans-4c" transform="translate(344.677734 0)"/>
     <use xlink:href="#LiberationSans-61" transform="translate(400.292969 0)"/>
     <use xlink:href="#LiberationSans-79" transform="translate(455.908203 0)"/>
     <use xlink:href="#LiberationSans-65" transform="translate(505.908203 0)"/>
     <use xlink:href="#LiberationSans-72" transform="translate(561.523438 0)"/>
     <use xlink:href="#LiberationSans-73" transform="translate(594.824219 0)"/>
    </g>
   </g>
   <g id="text_4">
    <!-- Output Layer (Latent) -->
    <g style="fill: #262626" transform="translate(789.274286 119.169531) scale(0.11 -0.11)">
     <defs>
      <path id="LiberationSans-4f" d="M 4672 2222 
Q 4672 1706 4523 1284 
Q 4375 863 4094 563 
Q 3813 263 3406 100 
Q 3000 -63 2484 -63 
Q 1941 -63 1531 107 
Q 1122 278 850 583 
Q 578 888 440 1306 
Q 303 1725 303 2222 
Q 303 2738 447 3153 
Q 591 3569 869 3861 
Q 1147 4153 1555 4311 
Q 1963 4469 2491 4469 
Q 3016 4469 3423 4309 
Q 3831 4150 4107 3856 
Q 4384 3563 4528 3147 
Q 4672 2731 4672 2222 
z
M 4063 2222 
Q 4063 2619 3961 2944 
Q 3859 3269 3661 3500 
Q 3463 3731 3169 3856 
Q 2875 3981 2491 3981 
Q 2097 3981 1800 3856 
Q 1503 3731 1304 3500 
Q 1106 3269 1007 2944 
Q 909 2619 909 2222 
Q 909 1825 1011 1495 
Q 1113 1166 1311 927 
Q 1509 688 1804 555 
Q 2100 422 2484 422 
Q 2897 422 3195 556 
Q 3494 691 3686 930 
Q 3878 1169 3970 1500 
Q 4063 1831 4063 2222 
z
" transform="scale(0.015625)"/>
      <path id="LiberationSans-28" d="M 397 1663 
Q 397 2097 462 2494 
Q 528 2891 668 3256 
Q 809 3622 1028 3965 
Q 1247 4309 1550 4638 
L 2094 4638 
Q 1800 4309 1586 3964 
Q 1372 3619 1234 3251 
Q 1097 2884 1030 2487 
Q 963 2091 963 1656 
Q 963 1222 1030 825 
Q 1097 428 1234 59 
Q 1372 -309 1586 -653 
Q 1800 -997 2094 -1325 
L 1550 -1325 
Q 1247 -997 1028 -653 
Q 809 -309 668 56 
Q 528 422 462 817 
Q 397 1213 397 1650 
L 397 1663 
z
" transform="scale(0.015625)"/>
      <path id="LiberationSans-29" d="M 1734 1650 
Q 1734 1213 1668 817 
Q 1603 422 1462 56 
Q 1322 -309 1103 -653 
Q 884 -997 581 -1325 
L 38 -1325 
Q 331 -997 545 -653 
Q 759 -309 896 59 
Q 1034 428 1101 825 
Q 1169 1222 1169 1656 
Q 1169 2091 1101 2487 
Q 1034 2884 896 3251 
Q 759 3619 545 3964 
Q 331 4309 38 4638 
L 581 4638 
Q 884 4309 1103 3965 
Q 1322 3622 1462 3256 
Q 1603 2891 1668 2494 
Q 1734 2097 1734 1663 
L 1734 1650 
z
" transform="scale(0.015625)"/>
     </defs>
     <use xlink:href="#LiberationSans-4f"/>
     <use xlink:href="#LiberationSans-75" transform="translate(77.783203 0)"/>
     <use xlink:href="#LiberationSans-74" transform="translate(133.398438 0)"/>
     <use xlink:href="#LiberationSans-70" transform="translate(161.181641 0)"/>
     <use xlink:href="#LiberationSans-75" transform="translate(216.796875 0)"/>
     <use xlink:href="#LiberationSans-74" transform="translate(272.412109 0)"/>
     <use xlink:href="#LiberationSans-20" transform="translate(300.195312 0)"/>
     <use xlink:href="#LiberationSans-4c" transform="translate(327.978516 0)"/>
     <use xlink:href="#LiberationSans-61" transform="translate(383.59375 0)"/>
     <use xlink:href="#LiberationSans-79" transform="translate(439.208984 0)"/>
     <use xlink:href="#LiberationSans-65" transform="translate(489.208984 0)"/>
     <use xlink:href="#LiberationSans-72" transform="translate(544.824219 0)"/>
     <use xlink:href="#LiberationSans-20" transform="translate(578.125 0)"/>
     <use xlink:href="#LiberationSans-28" transform="translate(605.908203 0)"/>
     <use xlink:href="#LiberationSans-4c" transform="translate(639.208984 0)"/>
     <use xlink:href="#LiberationSans-61" transform="translate(694.824219 0)"/>
     <use xlink:href="#LiberationSans-74" transform="translate(750.439453 0)"/>
     <use xlink:href="#LiberationSans-65" transform="translate(778.222656 0)"/>
     <use xlink:href="#LiberationSans-6e" transform="translate(833.837891 0)"/>
     <use xlink:href="#LiberationSans-74" transform="translate(889.453125 0)"/>
     <use xlink:href="#LiberationSans-29" transform="translate(917.236328 0)"/>
    </g>
   </g>
   <g id="text_5">
    <!-- Input: flatten_dim -->
    <g style="fill: #ffffff" transform="translate(433.3 139.3775) scale(0.16 -0.16)">
     <defs>
      <path id="LiberationSans-Bold-49" d="M 428 0 
L 428 4403 
L 1350 4403 
L 1350 0 
L 428 0 
z
" transform="scale(0.015625)"/>
      <path id="LiberationSans-Bold-70" d="M 3647 1706 
Q 3647 859 3308 398 
Q 2969 -63 2350 -63 
Q 1994 -63 1730 92 
Q 1466 247 1325 538 
L 1306 538 
Q 1325 444 1325 -31 
L 1325 -1328 
L 447 -1328 
L 447 2603 
Q 447 3081 422 3381 
L 1275 3381 
Q 1291 3325 1302 3159 
Q 1313 2994 1313 2831 
L 1325 2831 
Q 1622 3453 2406 3453 
Q 2997 3453 3322 2998 
Q 3647 2544 3647 1706 
z
M 2731 1706 
Q 2731 2844 2034 2844 
Q 1684 2844 1498 2537 
Q 1313 2231 1313 1681 
Q 1313 1134 1498 836 
Q 1684 538 2028 538 
Q 2731 538 2731 1706 
z
" transform="scale(0.015625)"/>
      <path id="LiberationSans-Bold-66" d="M 1478 2788 
L 1478 0 
L 603 0 
L 603 2788 
L 109 2788 
L 109 3381 
L 603 3381 
L 603 3734 
Q 603 4194 847 4416 
Q 1091 4638 1588 4638 
Q 1834 4638 2144 4588 
L 2144 4022 
Q 2016 4050 1888 4050 
Q 1663 4050 1570 3961 
Q 1478 3872 1478 3647 
L 1478 3381 
L 2144 3381 
L 2144 2788 
L 1478 2788 
z
" transform="scale(0.015625)"/>
      <path id="LiberationSans-Bold-5f" d="M -63 -781 
L -63 -538 
L 3616 -538 
L 3616 -781 
L -63 -781 
z
" transform="scale(0.015625)"/>
     </defs>
     <use xlink:href="#LiberationSans-Bold-49"/>
     <use xlink:href="#LiberationSans-Bold-6e" transform="translate(27.783203 0)"/>
     <use xlink:href="#LiberationSans-Bold-70" transform="translate(88.867188 0)"/>
     <use xlink:href="#LiberationSans-Bold-75" transform="translate(149.951172 0)"/>
     <use xlink:href="#LiberationSans-Bold-74" transform="translate(211.035156 0)"/>
     <use xlink:href="#LiberationSans-Bold-3a" transform="translate(244.335938 0)"/>
     <use xlink:href="#LiberationSans-Bold-20" transform="translate(277.636719 0)"/>
     <use xlink:href="#LiberationSans-Bold-66" transform="translate(305.419922 0)"/>
     <use xlink:href="#LiberationSans-Bold-6c" transform="translate(338.720703 0)"/>
     <use xlink:href="#LiberationSans-Bold-61" transform="translate(366.503906 0)"/>
     <use xlink:href="#LiberationSans-Bold-74" transform="translate(422.119141 0)"/>
     <use xlink:href="#LiberationSans-Bold-74" transform="translate(455.419922 0)"/>
     <use xlink:href="#LiberationSans-Bold-65" transform="translate(488.720703 0)"/>
     <use xlink:href="#LiberationSans-Bold-6e" transform="translate(544.335938 0)"/>
     <use xlink:href="#LiberationSans-Bold-5f" transform="translate(605.419922 0)"/>
     <use xlink:href="#LiberationSans-Bold-64" transform="translate(661.035156 0)"/>
     <use xlink:href="#LiberationSans-Bold-69" transform="translate(722.119141 0)"/>
     <use xlink:href="#LiberationSans-Bold-6d" transform="translate(749.902344 0)"/>
    </g>
   </g>
   <g id="text_6">
    <!-- Input: flatten_dim -->
    <g style="fill: #333333" transform="translate(450.075 170.12625) scale(0.12 -0.12)">
     <use xlink:href="#LiberationSans-Bold-49"/>
     <use xlink:href="#LiberationSans-Bold-6e" transform="translate(27.783203 0)"/>
     <use xlink:href="#LiberationSans-Bold-70" transform="translate(88.867188 0)"/>
     <use xlink:href="#LiberationSans-Bold-75" transform="translate(149.951172 0)"/>
     <use xlink:href="#LiberationSans-Bold-74" transform="translate(211.035156 0)"/>
     <use xlink:href="#LiberationSans-Bold-3a" transform="translate(244.335938 0)"/>
     <use xlink:href="#LiberationSans-Bold-20" transform="translate(277.636719 0)"/>
     <use xlink:href="#LiberationSans-Bold-66" transform="translate(305.419922 0)"/>
     <use xlink:href="#LiberationSans-Bold-6c" transform="translate(338.720703 0)"/>
     <use xlink:href="#LiberationSans-Bold-61" transform="translate(366.503906 0)"/>
     <use xlink:href="#LiberationSans-Bold-74" transform="translate(422.119141 0)"/>
     <use xlink:href="#LiberationSans-Bold-74" transform="translate(455.419922 0)"/>
     <use xlink:href="#LiberationSans-Bold-65" transform="translate(488.720703 0)"/>
     <use xlink:href="#LiberationSans-Bold-6e" transform="translate(544.335938 0)"/>
     <use xlink:href="#LiberationSans-Bold-5f" transform="translate(605.419922 0)"/>
     <use xlink:href="#LiberationSans-Bold-64" transform="translate(661.035156 0)"/>
     <use xlink:href="#LiberationSans-Bold-69" transform="translate(722.119141 0)"/>
     <use xlink:href="#LiberationSans-Bold-6d" transform="translate(749.902344 0)"/>
    </g>
   </g>
   <g id="text_7">
    <!-- 4096 → 512 -->
    <g style="fill: #ffffff" transform="translate(456.81375 255.7775) scale(0.16 -0.16)">
     <defs>
      <path id="LiberationSans-Bold-30" d="M 3297 2203 
Q 3297 1088 2914 512 
Q 2531 -63 1766 -63 
Q 253 -63 253 2203 
Q 253 2994 418 3494 
Q 584 3994 915 4231 
Q 1247 4469 1791 4469 
Q 2572 4469 2934 3903 
Q 3297 3338 3297 2203 
z
M 2416 2203 
Q 2416 2813 2356 3150 
Q 2297 3488 2165 3634 
Q 2034 3781 1784 3781 
Q 1519 3781 1383 3632 
Q 1247 3484 1189 3148 
Q 1131 2813 1131 2203 
Q 1131 1600 1192 1261 
Q 1253 922 1386 775 
Q 1519 628 1772 628 
Q 2022 628 2158 783 
Q 2294 938 2355 1278 
Q 2416 1619 2416 2203 
z
" transform="scale(0.015625)"/>
      <path id="LiberationSans-Bold-39" d="M 3322 2272 
Q 3322 1100 2894 518 
Q 2466 -63 1678 -63 
Q 1097 -63 767 185 
Q 438 434 300 972 
L 1125 1088 
Q 1247 628 1688 628 
Q 2056 628 2254 981 
Q 2453 1334 2459 2028 
Q 2341 1794 2070 1661 
Q 1800 1528 1488 1528 
Q 906 1528 564 1923 
Q 222 2319 222 2994 
Q 222 3688 623 4078 
Q 1025 4469 1759 4469 
Q 2550 4469 2936 3920 
Q 3322 3372 3322 2272 
z
M 2394 2888 
Q 2394 3297 2214 3539 
Q 2034 3781 1738 3781 
Q 1447 3781 1280 3570 
Q 1113 3359 1113 2988 
Q 1113 2622 1278 2401 
Q 1444 2181 1741 2181 
Q 2022 2181 2208 2373 
Q 2394 2566 2394 2888 
z
" transform="scale(0.015625)"/>
      <path id="LiberationSans-Bold-2192" d="M 4397 1197 
Q 4219 1406 4025 1813 
L 4250 1813 
Q 4647 1347 5094 1119 
L 5094 1006 
Q 4647 778 4250 313 
L 4025 313 
Q 4219 719 4397 928 
L 1306 928 
L 1306 1197 
L 4397 1197 
z
" transform="scale(0.015625)"/>
      <path id="LiberationSans-Bold-35" d="M 3381 1466 
Q 3381 766 2945 351 
Q 2509 -63 1750 -63 
Q 1088 -63 689 235 
Q 291 534 197 1100 
L 1075 1172 
Q 1144 891 1319 762 
Q 1494 634 1759 634 
Q 2088 634 2283 843 
Q 2478 1053 2478 1447 
Q 2478 1794 2293 2001 
Q 2109 2209 1778 2209 
Q 1413 2209 1181 1925 
L 325 1925 
L 478 4403 
L 3125 4403 
L 3125 3750 
L 1275 3750 
L 1203 2638 
Q 1522 2919 2000 2919 
Q 2628 2919 3004 2528 
Q 3381 2138 3381 1466 
z
" transform="scale(0.015625)"/>
      <path id="LiberationSans-Bold-31" d="M 403 0 
L 403 653 
L 1494 653 
L 1494 3656 
L 438 2997 
L 438 3688 
L 1541 4403 
L 2372 4403 
L 2372 653 
L 3381 653 
L 3381 0 
L 403 0 
z
" transform="scale(0.015625)"/>
      <path id="LiberationSans-Bold-32" d="M 222 0 
L 222 609 
Q 394 988 711 1347 
Q 1028 1706 1509 2097 
Q 1972 2472 2158 2715 
Q 2344 2959 2344 3194 
Q 2344 3769 1766 3769 
Q 1484 3769 1336 3617 
Q 1188 3466 1144 3163 
L 259 3213 
Q 334 3825 717 4147 
Q 1100 4469 1759 4469 
Q 2472 4469 2853 4144 
Q 3234 3819 3234 3231 
Q 3234 2922 3112 2672 
Q 2991 2422 2800 2211 
Q 2609 2000 2376 1815 
Q 2144 1631 1925 1456 
Q 1706 1281 1526 1103 
Q 1347 925 1259 722 
L 3303 722 
L 3303 0 
L 222 0 
z
" transform="scale(0.015625)"/>
     </defs>
     <use xlink:href="#LiberationSans-Bold-34"/>
     <use xlink:href="#LiberationSans-Bold-30" transform="translate(55.615234 0)"/>
     <use xlink:href="#LiberationSans-Bold-39" transform="translate(111.230469 0)"/>
     <use xlink:href="#LiberationSans-Bold-36" transform="translate(166.845703 0)"/>
     <use xlink:href="#LiberationSans-Bold-20" transform="translate(222.460938 0)"/>
     <use xlink:href="#LiberationSans-Bold-2192" transform="translate(250.244141 0)"/>
     <use xlink:href="#LiberationSans-Bold-20" transform="translate(350.244141 0)"/>
     <use xlink:href="#LiberationSans-Bold-35" transform="translate(378.027344 0)"/>
     <use xlink:href="#LiberationSans-Bold-31" transform="translate(433.642578 0)"/>
     <use xlink:href="#LiberationSans-Bold-32" transform="translate(489.257812 0)"/>
    </g>
   </g>
   <g id="text_8">
    <!-- BatchNorm+ReLU -->
    <g style="fill: #333333" transform="translate(459.690625 223.375) scale(0.1 -0.1)">
     <defs>
      <path id="LiberationSans-Italic-42" d="M 1050 4403 
L 2644 4403 
Q 2969 4403 3228 4334 
Q 3488 4266 3670 4136 
Q 3853 4006 3951 3818 
Q 4050 3631 4050 3397 
Q 4050 2941 3781 2677 
Q 3513 2413 2991 2322 
Q 3213 2284 3383 2198 
Q 3553 2113 3667 1988 
Q 3781 1863 3839 1706 
Q 3897 1550 3897 1372 
Q 3897 1113 3825 909 
Q 3753 706 3625 553 
Q 3497 400 3323 295 
Q 3150 191 2945 125 
Q 2741 59 2514 29 
Q 2288 0 2056 0 
L 197 0 
L 1050 4403 
z
M 1284 2531 
L 2319 2531 
Q 2884 2531 3156 2734 
Q 3428 2938 3428 3338 
Q 3428 3634 3214 3779 
Q 3000 3925 2591 3925 
L 1556 3925 
L 1284 2531 
z
M 884 478 
L 2034 478 
Q 2278 478 2508 515 
Q 2738 553 2913 653 
Q 3088 753 3194 928 
Q 3300 1103 3300 1381 
Q 3300 1716 3051 1891 
Q 2803 2066 2338 2066 
L 1194 2066 
L 884 478 
z
" transform="scale(0.015625)"/>
      <path id="LiberationSans-Italic-61" d="M 3297 19 
Q 3206 -3 3101 -17 
Q 2997 -31 2897 -31 
Q 2606 -31 2473 89 
Q 2341 209 2341 447 
Q 2341 494 2347 548 
Q 2353 603 2356 647 
L 2338 647 
Q 2228 481 2111 350 
Q 1994 219 1851 126 
Q 1709 34 1534 -14 
Q 1359 -63 1128 -63 
Q 884 -63 701 15 
Q 519 94 394 223 
Q 269 353 206 522 
Q 144 691 144 869 
Q 144 1122 217 1306 
Q 291 1491 417 1622 
Q 544 1753 714 1836 
Q 884 1919 1076 1966 
Q 1269 2013 1475 2031 
Q 1681 2050 1878 2053 
L 2603 2063 
L 2625 2175 
Q 2641 2253 2652 2325 
Q 2663 2397 2663 2459 
Q 2663 2744 2497 2880 
Q 2331 3016 2038 3016 
Q 1884 3016 1751 2992 
Q 1619 2969 1514 2908 
Q 1409 2847 1329 2742 
Q 1250 2638 1200 2478 
L 644 2569 
Q 703 2763 806 2923 
Q 909 3084 1078 3200 
Q 1247 3316 1489 3380 
Q 1731 3444 2069 3444 
Q 2347 3444 2562 3375 
Q 2778 3306 2925 3184 
Q 3072 3063 3148 2894 
Q 3225 2725 3225 2522 
Q 3225 2425 3208 2289 
Q 3191 2153 3166 2031 
L 2934 850 
Q 2919 781 2909 709 
Q 2900 638 2900 575 
Q 2900 459 2961 403 
Q 3022 347 3153 347 
Q 3200 347 3248 353 
Q 3297 359 3341 369 
L 3297 19 
z
M 2528 1675 
L 1906 1663 
Q 1781 1659 1647 1650 
Q 1513 1641 1383 1611 
Q 1253 1581 1136 1531 
Q 1019 1481 931 1395 
Q 844 1309 792 1187 
Q 741 1066 741 894 
Q 741 794 773 698 
Q 806 603 875 529 
Q 944 456 1045 411 
Q 1147 366 1284 366 
Q 1556 366 1759 459 
Q 1963 553 2106 690 
Q 2250 828 2333 989 
Q 2416 1150 2444 1284 
L 2528 1675 
z
" transform="scale(0.015625)"/>
      <path id="LiberationSans-Italic-74" d="M 1400 13 
Q 1284 -16 1146 -39 
Q 1009 -63 859 -63 
Q 594 -63 442 96 
Q 291 256 291 519 
Q 291 619 306 733 
Q 322 847 338 925 
L 731 2972 
L 341 2972 
L 422 3381 
L 819 3381 
L 1147 4138 
L 1522 4138 
L 1375 3381 
L 2000 3381 
L 1919 2972 
L 1294 2972 
L 903 956 
Q 891 894 878 803 
Q 866 713 866 659 
Q 866 528 931 456 
Q 997 384 1147 384 
Q 1228 384 1298 395 
Q 1369 406 1459 428 
L 1400 13 
z
" transform="scale(0.015625)"/>
      <path id="LiberationSans-Italic-63" d="M 1466 381 
Q 1641 381 1781 432 
Q 1922 484 2031 578 
Q 2141 672 2225 805 
Q 2309 938 2369 1100 
L 2856 947 
Q 2769 713 2642 527 
Q 2516 341 2342 209 
Q 2169 78 1947 7 
Q 1725 -63 1453 -63 
Q 1131 -63 895 34 
Q 659 131 507 304 
Q 356 478 282 715 
Q 209 953 209 1234 
Q 209 1359 220 1506 
Q 231 1653 259 1794 
Q 328 2141 436 2397 
Q 544 2653 676 2836 
Q 809 3019 964 3137 
Q 1119 3256 1283 3323 
Q 1447 3391 1617 3417 
Q 1788 3444 1953 3444 
Q 2231 3444 2442 3372 
Q 2653 3300 2800 3169 
Q 2947 3038 3030 2855 
Q 3113 2672 3128 2450 
L 2575 2372 
Q 2566 2513 2522 2628 
Q 2478 2744 2398 2826 
Q 2319 2909 2203 2956 
Q 2088 3003 1934 3003 
Q 1719 3003 1547 2940 
Q 1375 2878 1239 2737 
Q 1103 2597 1006 2370 
Q 909 2144 844 1816 
Q 816 1666 800 1500 
Q 784 1334 784 1216 
Q 784 819 945 600 
Q 1106 381 1466 381 
z
" transform="scale(0.015625)"/>
      <path id="LiberationSans-Italic-68" d="M 1197 2803 
Q 1303 2950 1415 3069 
Q 1528 3188 1664 3270 
Q 1800 3353 1964 3397 
Q 2128 3441 2338 3441 
Q 2800 3441 3033 3212 
Q 3266 2984 3266 2553 
Q 3266 2441 3245 2300 
Q 3225 2159 3200 2041 
L 2803 0 
L 2238 0 
L 2631 2016 
Q 2656 2138 2672 2264 
Q 2688 2391 2688 2484 
Q 2688 2731 2556 2868 
Q 2425 3006 2128 3006 
Q 1928 3006 1751 2926 
Q 1575 2847 1431 2701 
Q 1288 2556 1186 2351 
Q 1084 2147 1034 1894 
L 666 0 
L 106 0 
L 1006 4638 
L 1569 4638 
L 1334 3431 
Q 1316 3328 1292 3225 
Q 1269 3122 1247 3036 
Q 1225 2950 1209 2887 
Q 1194 2825 1188 2803 
L 1197 2803 
z
" transform="scale(0.015625)"/>
      <path id="LiberationSans-Italic-4e" d="M 3084 0 
L 1425 3781 
Q 1406 3638 1384 3488 
Q 1366 3359 1342 3214 
Q 1319 3069 1294 2947 
L 728 0 
L 197 0 
L 1050 4403 
L 1713 4403 
L 3381 606 
Q 3400 741 3422 891 
Q 3441 1019 3466 1176 
Q 3491 1334 3522 1494 
L 4088 4403 
L 4625 4403 
L 3772 0 
L 3084 0 
z
" transform="scale(0.015625)"/>
      <path id="LiberationSans-Italic-6f" d="M 3356 2134 
Q 3356 1972 3337 1808 
Q 3319 1644 3275 1459 
Q 3181 1047 3014 756 
Q 2847 466 2622 284 
Q 2397 103 2122 20 
Q 1847 -63 1534 -63 
Q 1234 -63 990 29 
Q 747 122 573 298 
Q 400 475 304 729 
Q 209 984 209 1309 
Q 213 1456 227 1612 
Q 241 1769 278 1938 
Q 369 2331 528 2614 
Q 688 2897 906 3081 
Q 1125 3266 1401 3353 
Q 1678 3441 2006 3441 
Q 2338 3441 2589 3353 
Q 2841 3266 3011 3097 
Q 3181 2928 3268 2686 
Q 3356 2444 3356 2134 
z
M 2775 2134 
Q 2775 2375 2722 2544 
Q 2669 2713 2567 2820 
Q 2466 2928 2322 2978 
Q 2178 3028 2000 3028 
Q 1834 3028 1667 2989 
Q 1500 2950 1348 2831 
Q 1197 2713 1072 2494 
Q 947 2275 863 1913 
Q 822 1741 805 1586 
Q 788 1431 788 1300 
Q 788 1044 847 862 
Q 906 681 1011 568 
Q 1116 456 1258 404 
Q 1400 353 1569 353 
Q 1738 353 1902 390 
Q 2066 428 2212 548 
Q 2359 669 2482 891 
Q 2606 1113 2691 1478 
Q 2734 1666 2751 1822 
Q 2769 1978 2775 2134 
z
" transform="scale(0.015625)"/>
      <path id="LiberationSans-Italic-72" d="M 2244 2931 
Q 2191 2947 2117 2959 
Q 2044 2972 1963 2972 
Q 1763 2972 1603 2856 
Q 1444 2741 1323 2562 
Q 1203 2384 1125 2170 
Q 1047 1956 1013 1763 
L 669 0 
L 106 0 
L 613 2594 
Q 634 2703 653 2812 
Q 672 2922 689 3025 
Q 706 3128 722 3220 
Q 738 3313 747 3381 
L 1278 3381 
Q 1269 3313 1255 3219 
Q 1241 3125 1225 3028 
Q 1209 2931 1195 2842 
Q 1181 2753 1169 2691 
L 1181 2691 
Q 1278 2884 1373 3026 
Q 1469 3169 1572 3261 
Q 1675 3353 1792 3398 
Q 1909 3444 2050 3444 
Q 2084 3444 2125 3439 
Q 2166 3434 2208 3428 
Q 2250 3422 2287 3414 
Q 2325 3406 2347 3400 
L 2244 2931 
z
" transform="scale(0.015625)"/>
      <path id="LiberationSans-Italic-6d" d="M 2063 0 
L 2450 1981 
Q 2463 2044 2477 2119 
Q 2491 2194 2502 2269 
Q 2513 2344 2520 2411 
Q 2528 2478 2528 2525 
Q 2528 2759 2409 2882 
Q 2291 3006 2022 3006 
Q 1844 3006 1683 2926 
Q 1522 2847 1394 2701 
Q 1266 2556 1172 2348 
Q 1078 2141 1034 1888 
L 666 0 
L 106 0 
L 625 2659 
Q 647 2766 667 2883 
Q 688 3000 705 3104 
Q 722 3209 733 3284 
Q 744 3359 747 3381 
L 1278 3381 
Q 1278 3366 1268 3297 
Q 1259 3228 1245 3139 
Q 1231 3050 1217 2958 
Q 1203 2866 1191 2803 
L 1200 2803 
Q 1294 2950 1394 3069 
Q 1494 3188 1612 3270 
Q 1731 3353 1876 3397 
Q 2022 3441 2206 3441 
Q 2584 3441 2806 3255 
Q 3028 3069 3072 2716 
Q 3172 2872 3278 3003 
Q 3384 3134 3514 3232 
Q 3644 3331 3801 3386 
Q 3959 3441 4159 3441 
Q 4581 3441 4807 3212 
Q 5034 2984 5034 2553 
Q 5034 2441 5014 2300 
Q 4994 2159 4969 2041 
L 4572 0 
L 4016 0 
L 4403 1981 
Q 4416 2044 4430 2119 
Q 4444 2194 4455 2269 
Q 4466 2344 4473 2411 
Q 4481 2478 4481 2525 
Q 4481 2759 4362 2882 
Q 4244 3006 3975 3006 
Q 3797 3006 3636 2928 
Q 3475 2850 3347 2706 
Q 3219 2563 3125 2356 
Q 3031 2150 2988 1897 
L 2619 0 
L 2063 0 
z
" transform="scale(0.015625)"/>
      <path id="LiberationSans-Italic-2b" d="M 2191 1900 
L 2191 563 
L 1731 563 
L 1731 1900 
L 406 1900 
L 406 2356 
L 1731 2356 
L 1731 3694 
L 2191 3694 
L 2191 2356 
L 3516 2356 
L 3516 1900 
L 2191 1900 
z
" transform="scale(0.015625)"/>
      <path id="LiberationSans-Italic-52" d="M 3284 0 
L 2525 1828 
L 1147 1828 
L 794 0 
L 197 0 
L 1050 4403 
L 2963 4403 
Q 3288 4403 3556 4323 
Q 3825 4244 4017 4094 
Q 4209 3944 4317 3730 
Q 4425 3516 4425 3247 
Q 4425 2659 4087 2315 
Q 3750 1972 3091 1881 
L 3928 0 
L 3284 0 
z
M 2678 2300 
Q 3244 2300 3531 2536 
Q 3819 2772 3819 3200 
Q 3819 3550 3586 3737 
Q 3353 3925 2891 3925 
L 1556 3925 
L 1241 2300 
L 2678 2300 
z
" transform="scale(0.015625)"/>
      <path id="LiberationSans-Italic-65" d="M 800 1572 
Q 784 1484 779 1395 
Q 775 1306 772 1219 
Q 772 803 980 581 
Q 1188 359 1606 359 
Q 1781 359 1925 404 
Q 2069 450 2186 526 
Q 2303 603 2392 704 
Q 2481 806 2541 919 
L 2972 722 
Q 2894 581 2781 442 
Q 2669 303 2501 190 
Q 2334 78 2100 7 
Q 1866 -63 1541 -63 
Q 1228 -63 981 26 
Q 734 116 564 286 
Q 394 456 305 703 
Q 216 950 216 1266 
Q 216 1759 348 2162 
Q 481 2566 717 2850 
Q 953 3134 1273 3289 
Q 1594 3444 1969 3444 
Q 2313 3444 2566 3353 
Q 2819 3263 2987 3100 
Q 3156 2938 3239 2711 
Q 3322 2484 3322 2213 
Q 3322 2147 3317 2069 
Q 3313 1991 3303 1906 
Q 3294 1822 3280 1736 
Q 3266 1650 3247 1572 
L 800 1572 
z
M 2750 2003 
Q 2756 2066 2759 2120 
Q 2763 2175 2763 2228 
Q 2763 2434 2706 2586 
Q 2650 2738 2547 2836 
Q 2444 2934 2300 2981 
Q 2156 3028 1981 3028 
Q 1831 3028 1665 2983 
Q 1500 2938 1348 2822 
Q 1197 2706 1072 2507 
Q 947 2309 875 2003 
L 2750 2003 
z
" transform="scale(0.015625)"/>
      <path id="LiberationSans-Italic-4c" d="M 197 0 
L 1050 4403 
L 1647 4403 
L 888 488 
L 3113 488 
L 3019 0 
L 197 0 
z
" transform="scale(0.015625)"/>
      <path id="LiberationSans-Italic-55" d="M 2044 -63 
Q 1719 -63 1433 21 
Q 1147 106 934 281 
Q 722 456 600 722 
Q 478 988 478 1347 
Q 478 1413 484 1498 
Q 491 1584 502 1671 
Q 513 1759 525 1842 
Q 538 1925 550 1984 
L 1019 4403 
L 1616 4403 
L 1109 1769 
Q 1088 1656 1072 1536 
Q 1056 1416 1056 1322 
Q 1056 1091 1134 922 
Q 1213 753 1350 642 
Q 1488 531 1678 476 
Q 1869 422 2094 422 
Q 2366 422 2598 490 
Q 2831 559 3017 709 
Q 3203 859 3336 1101 
Q 3469 1344 3534 1691 
L 4059 4403 
L 4653 4403 
L 4122 1656 
Q 4034 1216 3854 892 
Q 3675 569 3409 356 
Q 3144 144 2800 40 
Q 2456 -63 2044 -63 
z
" transform="scale(0.015625)"/>
     </defs>
     <use xlink:href="#LiberationSans-Italic-42"/>
     <use xlink:href="#LiberationSans-Italic-61" transform="translate(66.699219 0)"/>
     <use xlink:href="#LiberationSans-Italic-74" transform="translate(122.314453 0)"/>
     <use xlink:href="#LiberationSans-Italic-63" transform="translate(150.097656 0)"/>
     <use xlink:href="#LiberationSans-Italic-68" transform="translate(200.097656 0)"/>
     <use xlink:href="#LiberationSans-Italic-4e" transform="translate(255.712891 0)"/>
     <use xlink:href="#LiberationSans-Italic-6f" transform="translate(327.929688 0)"/>
     <use xlink:href="#LiberationSans-Italic-72" transform="translate(383.544922 0)"/>
     <use xlink:href="#LiberationSans-Italic-6d" transform="translate(416.845703 0)"/>
     <use xlink:href="#LiberationSans-Italic-2b" transform="translate(500.146484 0)"/>
     <use xlink:href="#LiberationSans-Italic-52" transform="translate(558.544922 0)"/>
     <use xlink:href="#LiberationSans-Italic-65" transform="translate(630.761719 0)"/>
     <use xlink:href="#LiberationSans-Italic-4c" transform="translate(686.376953 0)"/>
     <use xlink:href="#LiberationSans-Italic-55" transform="translate(741.992188 0)"/>
    </g>
   </g>
   <g id="patch_8">
    <path d="M 500.4 152.7 
Q 500.4 193.44 500.4 230.825898 
" style="fill: none; stroke: #000000; stroke-width: 3; stroke-linecap: round"/>
    <path d="M 502.4 226.825898 
L 500.4 230.825898 
L 498.4 226.825898 
" style="fill: none; stroke: #000000; stroke-width: 3; stroke-linecap: round"/>
   </g>
   <g id="text_9">
    <g id="patch_9">
     <path d="M 521.537143 200.334844 
L 594.814018 200.334844 
Q 597.514018 200.334844 597.514018 197.634844 
L 597.514018 189.245156 
Q 597.514018 186.545156 594.814018 186.545156 
L 521.537143 186.545156 
Q 518.837143 186.545156 518.837143 189.245156 
L 518.837143 197.634844 
Q 518.837143 200.334844 521.537143 200.334844 
z
" style="fill: #ffffff; opacity: 0.8"/>
    </g>
    <!-- BatchNorm+ReLU -->
    <g style="fill: #555555" transform="translate(521.537143 195.767344) scale(0.09 -0.09)">
     <use xlink:href="#LiberationSans-Italic-42"/>
     <use xlink:href="#LiberationSans-Italic-61" transform="translate(66.699219 0)"/>
     <use xlink:href="#LiberationSans-Italic-74" transform="translate(122.314453 0)"/>
     <use xlink:href="#LiberationSans-Italic-63" transform="translate(150.097656 0)"/>
     <use xlink:href="#LiberationSans-Italic-68" transform="translate(200.097656 0)"/>
     <use xlink:href="#LiberationSans-Italic-4e" transform="translate(255.712891 0)"/>
     <use xlink:href="#LiberationSans-Italic-6f" transform="translate(327.929688 0)"/>
     <use xlink:href="#LiberationSans-Italic-72" transform="translate(383.544922 0)"/>
     <use xlink:href="#LiberationSans-Italic-6d" transform="translate(416.845703 0)"/>
     <use xlink:href="#LiberationSans-Italic-2b" transform="translate(500.146484 0)"/>
     <use xlink:href="#LiberationSans-Italic-52" transform="translate(558.544922 0)"/>
     <use xlink:href="#LiberationSans-Italic-65" transform="translate(630.761719 0)"/>
     <use xlink:href="#LiberationSans-Italic-4c" transform="translate(686.376953 0)"/>
     <use xlink:href="#LiberationSans-Italic-55" transform="translate(741.992188 0)"/>
    </g>
   </g>
   <g id="text_10">
    <!-- 512 → 64 -->
    <g style="fill: #ffffff" transform="translate(465.71125 372.1775) scale(0.16 -0.16)">
     <use xlink:href="#LiberationSans-Bold-35"/>
     <use xlink:href="#LiberationSans-Bold-31" transform="translate(55.615234 0)"/>
     <use xlink:href="#LiberationSans-Bold-32" transform="translate(111.230469 0)"/>
     <use xlink:href="#LiberationSans-Bold-20" transform="translate(166.845703 0)"/>
     <use xlink:href="#LiberationSans-Bold-2192" transform="translate(194.628906 0)"/>
     <use xlink:href="#LiberationSans-Bold-20" transform="translate(294.628906 0)"/>
     <use xlink:href="#LiberationSans-Bold-36" transform="translate(322.412109 0)"/>
     <use xlink:href="#LiberationSans-Bold-34" transform="translate(378.027344 0)"/>
    </g>
   </g>
   <g id="text_11">
    <!-- Latent Space -->
    <g style="fill: #333333" transform="translate(463.058437 402.92625) scale(0.12 -0.12)">
     <defs>
      <path id="LiberationSans-Bold-4c" d="M 428 0 
L 428 4403 
L 1350 4403 
L 1350 713 
L 3713 713 
L 3713 0 
L 428 0 
z
" transform="scale(0.015625)"/>
      <path id="LiberationSans-Bold-53" d="M 4019 1269 
Q 4019 622 3539 279 
Q 3059 -63 2131 -63 
Q 1284 -63 803 237 
Q 322 538 184 1147 
L 1075 1294 
Q 1166 944 1428 786 
Q 1691 628 2156 628 
Q 3122 628 3122 1216 
Q 3122 1403 3011 1525 
Q 2900 1647 2698 1728 
Q 2497 1809 1925 1925 
Q 1431 2041 1237 2111 
Q 1044 2181 887 2276 
Q 731 2372 622 2506 
Q 513 2641 452 2822 
Q 391 3003 391 3238 
Q 391 3834 839 4151 
Q 1288 4469 2144 4469 
Q 2963 4469 3373 4212 
Q 3784 3956 3903 3366 
L 3009 3244 
Q 2941 3528 2730 3672 
Q 2519 3816 2125 3816 
Q 1288 3816 1288 3291 
Q 1288 3119 1377 3009 
Q 1466 2900 1641 2823 
Q 1816 2747 2350 2631 
Q 2984 2497 3257 2383 
Q 3531 2269 3690 2117 
Q 3850 1966 3934 1755 
Q 4019 1544 4019 1269 
z
" transform="scale(0.015625)"/>
     </defs>
     <use xlink:href="#LiberationSans-Bold-4c"/>
     <use xlink:href="#LiberationSans-Bold-61" transform="translate(61.083984 0)"/>
     <use xlink:href="#LiberationSans-Bold-74" transform="translate(116.699219 0)"/>
     <use xlink:href="#LiberationSans-Bold-65" transform="translate(150 0)"/>
     <use xlink:href="#LiberationSans-Bold-6e" transform="translate(205.615234 0)"/>
     <use xlink:href="#LiberationSans-Bold-74" transform="translate(266.699219 0)"/>
     <use xlink:href="#LiberationSans-Bold-20" transform="translate(300 0)"/>
     <use xlink:href="#LiberationSans-Bold-53" transform="translate(327.783203 0)"/>
     <use xlink:href="#LiberationSans-Bold-70" transform="translate(394.482422 0)"/>
     <use xlink:href="#LiberationSans-Bold-61" transform="translate(455.566406 0)"/>
     <use xlink:href="#LiberationSans-Bold-63" transform="translate(511.181641 0)"/>
     <use xlink:href="#LiberationSans-Bold-65" transform="translate(566.796875 0)"/>
    </g>
   </g>
   <g id="patch_10">
    <path d="M 500.4 269.1 
Q 500.4 309.84 500.4 347.225898 
" style="fill: none; stroke: #000000; stroke-width: 3; stroke-linecap: round"/>
    <path d="M 502.4 343.225898 
L 500.4 347.225898 
L 498.4 343.225898 
" style="fill: none; stroke: #000000; stroke-width: 3; stroke-linecap: round"/>
   </g>
  </g>
 </g>
 <defs>
  <clipPath id="p7d9cd7dfbb">
   <rect x="7.2" y="7.2" width="986.4" height="698.4"/>
  </clipPath>
 </defs>
</svg>
